<?xml version="1.0" encoding="UTF-8"?>
<svg id="Layer_1" data-name="Layer 1" xmlns="http://www.w3.org/2000/svg" viewBox="0 0 1920 1080" width="154.3" height="45">
  <defs>
    <style>
      .cls-1 {
        fill: #fff;
        stroke-width: 0px;
      }
    </style>
  </defs>
  <polygon class="cls-1" points="941.17 506.91 934.29 500.01 926.97 507.32 934.29 514.63 941.17 507.73 948.07 514.63 955.38 507.32 948.07 500.01 941.17 506.91"/>
  <polygon class="cls-1" points="770.4 434.39 777.3 441.28 784.6 433.98 777.3 426.68 770.4 433.58 763.51 426.68 756.2 433.98 763.51 441.28 770.4 434.39"/>
  <path class="cls-1" d="M916.01,439.84h-6c-3.09,0-3.88-1.5-3.88-3.44,0-2.21,1.14-3.25,4.15-3.25,1.14,0,2.64.18,4.15.45l.09-4.34c-2.02-.26-4.06-.53-5.82-.53-5.56,0-8.83,2.21-8.83,6.71,0,1.68.45,3.26,1.5,4.41h-3v4.23h17.65v-4.23Z"/>
  <path class="cls-1" d="M770,491.42c5.29,0,10.41-1.58,15.43-4.23,2.21,2.38,5.39,3.71,9.27,3.71h104.38c6.24,0,10.69-3.5,12.46-7.12,1.13,3.59,4.71,7.12,9.23,7.12h18.24c6.24,0,10.69-3.5,12.47-7.12,1.13,3.59,4.7,7.12,9.23,7.12h57.54c7.38,0,12.63-2.64,15.98-7.17v.05c1.13,3.59,4.7,7.12,9.23,7.12h8.72c8.29,0,15.01-6.71,15.01-15.01v-49.44h-12.7v50.48c0,1.88-1.52,3.4-3.4,3.4h-6.91c-4.06,0-5.95-2.52-5.95-6.66h-.02c.33-1.97.5-4.06.5-6.28,0-15.18-10.5-23.81-22.76-23.92-8.83,0-15.75,4.7-21.66,10.62h-1.6c-9.88,0-18.42,5.13-18.42,15.8,0,4.05,1.35,7.89,4.61,10.44h-18.79c-4.06,0-5.95-2.52-5.95-6.66v-24.02h-12.7v27.28c0,1.88-1.52,3.4-3.4,3.4h-17.88c-4.06,0-5.96-2.52-5.96-6.66v-24.02h-12.7v27.28c0,1.88-1.52,3.4-3.39,3.4h-98.19c-3,0-4.85-2.11-4.85-5.19v-31.92h-12.7v4.67c-2.48-.26-4.78-.53-7.06-.53-13.08,0-23.47,6.94-23.47,19.24v6.66c0,10.85,6.79,18.16,18.18,18.16M1014.44,454.05c6.09,0,11.56,4.67,11.56,13.84,0,7.16-3.26,12.44-10.07,12.44h-4.41c.28-2.11.36-4.14.36-6.16,0-7.33-2.38-12.98-6.96-16.42,2.82-2.02,5.82-3.7,9.52-3.7M993,463.66c5.9,0,7.76,5.03,7.76,10.68,0,2.12-.26,3.97-.7,6h-6.09c-5.3,0-8.56-3.43-8.56-8.55,0-4.67,2.73-8.12,7.6-8.12M764.51,467.29c0-6.44,4.91-9.36,11.35-9.36,2.12,0,4.19.27,6.49.62v20.01c-2.93,1.33-5.78,2.3-8.68,2.3-5.48,0-9.15-3.51-9.15-8.11v-5.46Z"/>
  <rect class="cls-1" x="1079.28" y="426.45" width="12.7" height="64.46"/>
  <polygon class="cls-1" points="615.13 605.46 608.23 598.57 600.93 605.87 608.23 613.18 615.13 606.28 622.02 613.18 629.33 605.87 622.02 598.57 615.13 605.46"/>
  <path class="cls-1" d="M669.05,547.71c-12.79,0-20.64,8.74-20.64,21.45s7.42,20.11,19.68,20.11h9.27c-.53,8.39-7.15,10.98-15.63,10.98-2.47,0-4.67-.17-7.14-.44v10.4c2.99.27,5.64.53,8.38.45,15.96-.17,27.17-8.12,27.17-23.91v-16.51c0-13.32-7.76-22.54-21.09-22.54M677.44,578.9h-8.65c-5.55,0-7.77-4.58-7.77-10.06,0-5.83,2.39-10.59,8.12-10.59,6.01,0,8.3,5.02,8.3,10.94v9.71Z"/>
  <polygon class="cls-1" points="593.67 532.9 586.19 525.42 578.73 532.9 586.19 540.38 593.67 532.9"/>
  <polygon class="cls-1" points="533 605.87 540.47 613.35 547.94 605.87 540.47 598.39 533 605.87"/>
  <path class="cls-1" d="M610.06,589.45h3.01c8.29,0,15.01-6.71,15.01-15.01v-26.24h-12.7v27.28c0,1.87-1.52,3.4-3.4,3.4h-13.48c-4.07,0-5.96-2.52-5.96-6.67v-24.01h-12.7v27.28c0,1.87-1.52,3.4-3.4,3.4h-17.91c-4.07,0-5.96-2.52-5.96-6.67v-24.01h-12.7v27.28c0,1.87-1.52,3.4-3.4,3.4h-198.27c3.7-3.18,5.64-7.77,5.64-13.32,0-11.92-9.17-18.06-21.25-18.06-7.16,0-13.51,2.02-19.77,5.46l-3.7,10.03,11.48,18.79c-8.91,1.68-14.57,8.12-14.57,17.56,0,13.23,11.21,18.09,24.54,18.09,4.94,0,9.35-.44,14.28-1.14v-10.15c-4.32.53-8.47.88-12.87.88-7.06,0-13.23-1.44-13.23-8.49,0-6.09,4.67-9.09,10.76-9.09h217.96c6.22,0,10.69-3.5,12.46-7.13,1.13,3.6,4.7,7.13,9.23,7.13h18.28c6.22,0,10.69-3.5,12.46-7.13,1.13,3.6,4.7,7.13,9.23,7.13h10.94ZM322.77,578.89h-1.5l-10.59-17.39c3.09-2.02,6.34-3.43,10.24-3.43,5.9,0,10.49,3.34,10.49,9.61,0,5.65-3.61,9.18-8.64,11.21"/>
  <polygon class="cls-1" points="993.6 605.87 1001.08 613.35 1008.54 605.87 1001.08 598.39 993.6 605.87"/>
  <polygon class="cls-1" points="940.61 605.87 948.09 613.35 955.56 605.87 948.09 598.39 940.61 605.87"/>
  <path class="cls-1" d="M1079.28,575.49c0,1.87-1.52,3.4-3.4,3.4h-8.81c-4.07,0-5.96-2.52-5.96-6.67v-47.21h-12.7v50.48c0,1.87-1.52,3.4-3.4,3.4h-12.59c-4.06,0-5.95-2.52-5.95-6.67v-9.35c0-13.94-10.15-21.26-24.01-21.26-6.34,0-17.71,1.08-23.89,2.06v10.19c5.56-.88,16.22-1.77,21.86-1.68,7.68,0,13.33,3.44,13.33,11.02v12.3c0,1.87-1.52,3.4-3.39,3.4h-44.23c-4.06,0-5.95-2.52-5.95-6.67v-24.01h-12.71v27.28c0,1.87-1.51,3.4-3.39,3.4h-17.87c-4.07,0-5.96-2.52-5.96-6.67v-24.01h-12.7v27.28c0,1.87-1.52,3.4-3.39,3.4h-132.36c-4.07,0-5.96-2.52-5.96-6.67v-47.21h-12.7v61.57c0,7.5-5.13,11.91-12.54,11.91-8.21,0-12.62-6.08-12.62-15.34,0-3.1.83-8.38,1.35-12.54h-12.71c-.62,4.51-1.43,10.23-1.43,14.73,0,15,10.76,23.29,25.68,23.29,13.41,0,24.04-6.98,24.79-19.68.08-1.35.07-4.2.04-6.49,1.18,3.55,4.72,6.99,9.18,6.99h130.26c6.22,0,10.69-3.5,12.46-7.13,1.13,3.6,4.7,7.13,9.23,7.13h18.24c6.24,0,10.69-3.5,12.46-7.13,1.13,3.6,4.71,7.13,9.23,7.13h44.6c6.22,0,10.69-3.5,12.46-7.13,1.13,3.6,4.7,7.13,9.23,7.13h12.95c6.22,0,10.69-3.5,12.46-7.13,1.13,3.6,4.7,7.13,9.23,7.13h9.28c8.29,0,15.01-6.71,15.01-15.01v-49.44h-12.7v50.48Z"/>
  <polygon class="cls-1" points="907.3 605.46 900.4 598.57 893.1 605.87 900.4 613.18 907.3 606.28 914.19 613.18 921.5 605.87 914.19 598.57 907.3 605.46"/>
  <polygon class="cls-1" points="315.69 434.39 322.58 441.28 329.89 433.98 322.58 426.68 315.69 433.58 308.79 426.68 301.48 433.98 308.79 441.28 315.69 434.39"/>
  <rect class="cls-1" x="710.61" y="426.45" width="12.7" height="64.46"/>
  <path class="cls-1" d="M685.81,476.94c0,1.87-1.52,3.4-3.4,3.4h-11.89c-4.08,0-5.96-2.52-5.96-6.67h-.01c.21-1.1.32-2.19.32-3.23,0-12.28-8.72-20.55-21.31-20.55s-21.31,8.27-21.31,20.55c0,5.07,1.36,8.58,1.97,9.9h-11.22c-4.06,0-5.96-2.52-5.96-6.67v-47.21h-12.7v50.48c0,1.87-1.51,3.4-3.38,3.4h-11.84c-4.07,0-5.96-2.52-5.96-6.67v-1.59c0-11.32-9.19-20.5-20.5-20.5h-50.73l25.93-17.07-5.9-8.42-38.1,26.78,3.58,9.28h64.45c4.73,0,8.58,3.84,8.58,8.58v6.22c0,1.88-1.52,3.4-3.41,3.4h-85.82c-4.06,0-5.96-2.52-5.96-6.67v-24.01h-12.7v27.28c0,1.87-1.52,3.4-3.4,3.4h-103.97c-3,0-4.85-2.11-4.85-5.2v-31.92h-12.7v4.68c-2.47-.26-4.78-.53-7.06-.53-13.08,0-23.47,6.93-23.47,19.23v6.66c0,10.85,6.79,18.17,18.18,18.17,5.29,0,10.41-1.58,15.43-4.23,2.21,2.38,5.39,3.71,9.27,3.71h110.16c6.24,0,10.69-3.5,12.46-7.13,1.13,3.6,4.71,7.13,9.23,7.13h86.2c6.22,0,10.69-3.5,12.46-7.13,1.13,3.6,4.7,7.13,9.23,7.13h12.2c6.24,0,10.69-3.5,12.46-7.13,1.13,3.6,4.71,7.13,9.23,7.13h32.35c5.79,0,10.57-3,13.89-7.13,1.13,3.6,4.7,7.13,9.23,7.13h14.42c8.29,0,15.02-6.73,15.02-15.02v-49.43h-12.71v50.48ZM327.63,478.57c-2.93,1.33-5.78,2.3-8.68,2.3-5.48,0-9.15-3.51-9.15-8.12v-5.45c0-6.44,4.92-9.36,11.35-9.36,2.12,0,4.19.27,6.49.62v20.01ZM652.16,471.81c0,4.7-3.82,8.53-8.53,8.53h-7.39s-1.29-3.93-1.29-8.67c0-6.62,2.44-11.14,8.54-11.21h.12c6.12.07,8.55,4.59,8.55,11.21v.14Z"/>
  <polygon class="cls-1" points="452.3 507.73 459.19 514.62 466.5 507.31 459.19 500.01 452.3 506.91 445.4 500.01 438.1 507.31 445.4 514.62 452.3 507.73"/>
  <path class="cls-1" d="M317.93,680.49l-6.55-9.94c-1.06-1.56-2.45-2.54-4.31-2.54h-3.25v12.47h-6.73v-33.18h13.73c6.85,0,12.34,3.22,12.34,9.94,0,5.03-3.04,8.33-7.73,9.63,1.85,1.32,3.29,2.87,4.56,4.78l5.75,8.84h-7.81ZM310.19,663.03c3.46,0,6.33-1.69,6.21-5.2-.13-3.37-2.87-4.98-6.21-4.98h-6.38v10.19h6.38Z"/>
  <path class="cls-1" d="M351.94,668.53c0,7.56-5.19,12.43-12.75,12.38-7.56,0-12.68-4.86-12.68-12.38s5.19-12.25,12.71-12.3c7.53,0,12.72,4.78,12.72,12.3M345.18,668.53c0-3.84-2.11-6.76-6-6.76s-5.96,2.96-5.96,6.85,2.07,6.76,5.96,6.76,6-2.96,6-6.85"/>
  <polygon class="cls-1" points="360.73 656.95 367.15 672.92 372.69 656.95 379.07 656.95 366.48 690.41 360.53 690.41 364.19 680.4 353.3 656.95 360.73 656.95"/>
  <path class="cls-1" d="M404.93,656.86v23.63h-6.33v-3.63c-1.69,2.49-4.31,4.06-7.99,4.06-6.85,0-10.14-5.5-10.14-12.38s3.25-12.38,10.14-12.38c3.68,0,6.3,1.57,7.99,4.1v-3.38h6.33ZM398.21,668.57v-.13c-.04-3.71-1.77-6.76-5.5-6.76s-5.5,3.05-5.5,6.8,1.74,6.89,5.54,6.89,5.45-3.04,5.45-6.8"/>
  <rect class="cls-1" x="410.26" y="646.76" width="6.42" height="33.72"/>
  <path class="cls-1" d="M456.7,648.71v4.98l-.51.42c-2.7-1.1-5.32-1.86-8.11-1.86-6.98,0-11.03,4.69-11.03,11.54s4.31,11.71,11.37,11.71c2.83,0,5.5-.76,8.03-2.15l.54.42v5.23c-3,1.23-5.95,1.9-9.21,1.9-10.61,0-17.79-6.68-17.79-17.32,0-10.01,6.29-16.82,16.36-16.82,3.63,0,7.01.6,10.35,1.95"/>
  <path class="cls-1" d="M485.13,668.53c0,7.56-5.19,12.43-12.75,12.38-7.57,0-12.68-4.86-12.68-12.38s5.19-12.25,12.71-12.3c7.53,0,12.72,4.78,12.72,12.3M478.38,668.53c0-3.84-2.11-6.76-6-6.76s-5.96,2.96-5.96,6.85,2.07,6.76,5.96,6.76,6-2.96,6-6.85"/>
  <path class="cls-1" d="M527.14,666.54v13.94h-6.38v-12.3c0-3.46-.94-6.42-4.53-6.42-4.02,0-4.78,3.85-4.9,8.12v10.6h-6.39v-12.3c0-3.46-.92-6.42-4.52-6.42-4.02,0-4.78,3.85-4.91,8.12v10.6h-6.38v-23.61h6.04v3.8c1.52-2.7,4.06-4.43,7.69-4.43,4.02,0,6.51,2.11,7.65,5.28,1.48-3.17,4.14-5.28,8.15-5.28,5.92,0,8.46,4.56,8.46,10.31"/>
  <path class="cls-1" d="M569.99,666.54v13.94h-6.38v-12.3c0-3.46-.94-6.42-4.53-6.42-4.02,0-4.78,3.85-4.9,8.12v10.6h-6.39v-12.3c0-3.46-.92-6.42-4.52-6.42-4.02,0-4.78,3.85-4.91,8.12v10.6h-6.38v-23.61h6.04v3.8c1.52-2.7,4.06-4.43,7.69-4.43,4.02,0,6.51,2.11,7.65,5.28,1.48-3.17,4.14-5.28,8.15-5.28,5.92,0,8.46,4.56,8.46,10.31"/>
  <path class="cls-1" d="M604.81,657.33v5.28l-.34.26c-2.79-.6-5.45-1.06-7.9-1.06s-4.4.41-4.4,1.73c0,1.6,2.92,1.9,5.58,2.49,4.72,1.01,8.78,2.74,8.78,7.43,0,5.29-5.23,7.44-11.49,7.44-3.17,0-6.17-.34-9.13-1.39v-5.25l.34-.25c2.75.85,5.45,1.35,8.41,1.35,2.36,0,4.9-.5,4.9-2.07,0-1.7-3.04-2.15-5.62-2.71-4.73-1.1-8.62-2.66-8.62-7.18,0-5.11,5.07-7.14,11.11-7.14,2.92,0,5.58.47,8.37,1.06"/>
  <path class="cls-1" d="M628.81,657.33v5.28l-.34.26c-2.79-.6-5.45-1.06-7.9-1.06s-4.4.41-4.4,1.73c0,1.6,2.92,1.9,5.58,2.49,4.72,1.01,8.78,2.74,8.78,7.43,0,5.29-5.23,7.44-11.49,7.44-3.17,0-6.17-.34-9.13-1.39v-5.25l.34-.25c2.75.85,5.45,1.35,8.41,1.35,2.36,0,4.9-.5,4.9-2.07,0-1.7-3.04-2.15-5.62-2.71-4.73-1.1-8.62-2.66-8.62-7.18,0-5.11,5.07-7.14,11.11-7.14,2.92,0,5.58.47,8.37,1.06"/>
  <path class="cls-1" d="M670.34,668.53c0,7.56-5.19,12.43-12.75,12.38-7.56,0-12.68-4.86-12.68-12.38s5.19-12.25,12.71-12.3c7.53,0,12.72,4.78,12.72,12.3M663.59,668.53c0-3.84-2.11-6.76-6-6.76s-5.96,2.96-5.96,6.85,2.07,6.76,5.96,6.76,6-2.96,6-6.85"/>
  <path class="cls-1" d="M680.36,656.87v3.84c1.52-2.7,4.06-4.47,7.74-4.47,5.91,0,8.44,4.56,8.44,10.31v13.95h-6.38v-12.3c0-3.47-.94-6.43-4.4-6.43-4.4,0-5.03,4.73-5.03,9.55l-.04-.04v9.22h-6.38v-23.63h6.04Z"/>
  <path class="cls-1" d="M708.21,657.12h3.43v-3.59c0-5.07,3.88-7.86,8.96-7.86,2.2,0,4.22.38,6.17,1.39l-.04,4.81-.22.3c-1.47-.55-2.92-.98-4.52-.98-2.37,0-3.93,1.44-3.93,3.85v2.07h7.31v5.54h-7.31v17.83h-6.42v-17.83h-3.43v-5.54Z"/>
  <path class="cls-1" d="M752.32,668.53c0,7.56-5.19,12.43-12.75,12.38-7.56,0-12.68-4.86-12.68-12.38s5.19-12.25,12.72-12.3c7.52,0,12.71,4.78,12.71,12.3M745.56,668.53c0-3.84-2.11-6.76-6-6.76s-5.96,2.96-5.96,6.85,2.07,6.76,5.96,6.76,6-2.96,6-6.85"/>
  <path class="cls-1" d="M762.25,656.87v3.97c2.07-3.38,5.25-4.86,9.25-4.6v5.57c-.67-.12-1.31-.16-1.94-.16-3.93,0-6.89,2.02-6.89,6.25v12.6h-6.39v-23.63h5.96Z"/>
  <path class="cls-1" d="M798.76,647.31v23.45c0,6.3-4.31,10.14-10.73,10.14-2.2,0-4.31-.42-6.55-1.01v-4.82l.54-.42c1.44.42,2.83.76,4.23.76,3.46-.04,5.53-2.32,5.53-5.66v-22.44h6.98Z"/>
  <path class="cls-1" d="M820.15,680.49v-3.63c-1.44,2.54-4.06,4.06-7.78,4.06-6.08,0-9.38-4.02-9.38-10.19v-13.86h6.43v12.34c0,3.43,1.39,6.17,4.9,6.17,3.97,0,5.45-3.5,5.45-7.56l.04.04v-10.99h6.38v23.63h-6.04Z"/>
  <path class="cls-1" d="M855.68,668.57c0,6.85-3.3,12.38-10.19,12.38-3.67,0-6.29-1.57-7.94-4.1v3.59l-1.85.04h-4.19v-33.72h6.42v13.02c1.7-2.23,4.19-3.59,7.61-3.59,6.85,0,10.14,5.54,10.14,12.38M848.92,668.57c0-3.77-1.73-6.85-5.5-6.85s-5.5,3.08-5.5,6.85,1.7,6.85,5.45,6.85,5.54-3.08,5.54-6.85"/>
  <path class="cls-1" d="M882.85,656.86v23.63h-6.33v-3.63c-1.69,2.49-4.31,4.06-7.99,4.06-6.85,0-10.14-5.5-10.14-12.38s3.25-12.38,10.14-12.38c3.68,0,6.3,1.57,7.99,4.1v-3.38h6.33ZM876.14,668.57v-.13c-.04-3.71-1.77-6.76-5.5-6.76s-5.5,3.05-5.5,6.8,1.74,6.89,5.54,6.89,5.45-3.04,5.45-6.8"/>
  <path class="cls-1" d="M894.61,680.49h-6.42v-23.63h6.42v23.63ZM895.42,649.43l-4.04,4.03-4.03-4.03,4.03-4.04,4.04,4.04Z"/>
  <rect class="cls-1" x="899.89" y="646.76" width="6.42" height="33.72"/>
  <path class="cls-1" d="M949.7,680.49h-7.86l-2.49-2.33c-2.92,1.9-6.21,3-9.42,3-6.13,0-10.19-3.55-10.19-8.28,0-3.93,2.49-6.13,5.45-7.74-1.95-1.98-3.25-4.35-3.25-7.05,0-4.35,3.84-7.99,9.34-7.99s9.13,3.21,9.13,7.68-3.13,6.43-6.42,8.07l5.57,5.2c1.27-1.82,2.02-4.1,2.02-6.73h5.88c0,3.9-1.6,7.44-4.06,10.27l6.3,5.88ZM935.46,674.57l-6.71-6.17c-1.64.97-2.79,2.11-2.79,3.81,0,1.94,1.82,3.59,4.52,3.59,1.7,0,3.43-.42,4.98-1.23M930.56,662.65c2.49-1.14,4.4-2.36,4.4-4.4,0-1.82-1.61-3.17-3.55-3.17-2.46,0-3.63,1.6-3.63,3.21,0,1.39,1.06,2.62,2.79,4.35"/>
  <polygon class="cls-1" points="988.67 647.31 978.06 666.41 978.06 680.48 971.09 680.48 971.09 666.41 959.47 647.31 967.58 647.31 974.98 660.54 981.95 647.31 988.67 647.31"/>
  <path class="cls-1" d="M1008.82,656.86v23.63h-6.33v-3.63c-1.69,2.49-4.31,4.06-7.99,4.06-6.85,0-10.14-5.5-10.14-12.38s3.25-12.38,10.14-12.38c3.68,0,6.3,1.57,7.99,4.1v-3.38h6.33ZM1002.1,668.57v-.13c-.04-3.71-1.77-6.76-5.5-6.76s-5.5,3.05-5.5,6.8,1.74,6.89,5.54,6.89,5.45-3.04,5.45-6.8"/>
  <path class="cls-1" d="M1020.19,656.87v3.84c1.52-2.7,4.06-4.47,7.74-4.47,5.91,0,8.44,4.56,8.44,10.31v13.95h-6.38v-12.3c0-3.47-.94-6.43-4.4-6.43-4.4,0-5.03,4.73-5.03,9.55l-.04-.04v9.22h-6.38v-23.63h6.04Z"/>
  <path class="cls-1" d="M1065.31,668.57c0,6.85-3.3,12.38-10.19,12.38-3.67,0-6.29-1.57-7.94-4.1v3.59l-1.85.04h-4.19v-33.72h6.42v13.02c1.7-2.23,4.19-3.59,7.61-3.59,6.84,0,10.14,5.54,10.14,12.38M1058.56,668.57c0-3.77-1.73-6.85-5.5-6.85s-5.5,3.08-5.5,6.85,1.7,6.85,5.45,6.85,5.54-3.08,5.54-6.85"/>
  <path class="cls-1" d="M1085.94,680.49v-3.63c-1.44,2.54-4.06,4.06-7.78,4.06-6.08,0-9.38-4.02-9.38-10.19v-13.86h6.43v12.34c0,3.43,1.39,6.17,4.9,6.17,3.97,0,5.45-3.5,5.45-7.56l.04.04v-10.99h6.38v23.63h-6.04Z"/>
  <rect class="cls-1" x="634.48" y="656.86" width="6.42" height="23.63"/>
  <polygon class="cls-1" points="641.71 649.43 637.69 653.45 633.65 649.43 637.69 645.39 641.71 649.43"/>
  <rect class="cls-1" x="574.76" y="656.86" width="6.42" height="23.63"/>
  <polygon class="cls-1" points="582.01 649.43 577.98 653.45 573.94 649.43 577.98 645.39 582.01 649.43"/>
  <path class="cls-1" d="M1552.09,568.88l-53.11-66.08-49.99-17.34-21.32-7.39v209.92l173.63-57.89-49.21-61.22ZM1320.36,434.91l101.7,35.27v-60.48l-101.7,25.21ZM1209.63,462.36l-3.44.87,63.01,88.89,38.48,54.3v-168.37l-98.05,24.31ZM1331.73,650.09l-18.43-26.04v35.77l31.11,8.13-12.68-17.86ZM1411.01,472.29l-97.71-33.88v175.94l22.97,32.42,16.58,23.4,69.2,18.1v-212.13l-11.05-3.84ZM1388.66,583.33l-.32.33c-.62-.11-1.22-.22-1.82-.37-.28-.05-.58-.11-.86-.18-.37-.1-.73-.17-1.11-.26-.22-.05-.45-.12-.66-.17-.17-.05-.33-.09-.49-.14-.32-.08-.64-.17-.96-.27-.47-.13-.94-.27-1.4-.42-.29-.1-.6-.18-.9-.3-1.17-.39-2.33-.82-3.47-1.28-.28-.1-.54-.21-.83-.34-.11-.04-.23-.1-.34-.13-.28-.13-.58-.25-.84-.38-.3-.13-.61-.28-.9-.41-.24-.11-.49-.22-.71-.34-.25-.11-.47-.22-.72-.33-.35-.2-.73-.38-1.07-.57-.37-.18-.73-.37-1.09-.58,1.19-.75,2.33-1.53,3.43-2.36.85-.62,1.74-1.24,2.68-1.87.41-.26.83-.54,1.25-.83.34.17.67.32,1.01.47.64.26,1.27.52,1.92.77.42.16.88.34,1.33.48.26.1.54.2.81.28.28.1.58.18.86.28.36.11.7.21,1.04.32.38.12.75.21,1.13.33,1.23.34,2.48.61,3.74.87.22.04.45.08.69.12.32.08.65.13.99.18.36.05.73.11,1.11.16.26.04.52.08.81.1.22.03.45.08.67.1.37.03.74.07,1.12.11l-6.1,6.65ZM1400.88,556.9l-2.56,3.82c-9.44,1.95-17.44,6.08-23.46,10.11-.97.65-1.9,1.28-2.76,1.94-1.45,1.06-2.91,2.05-4.42,2.96-6.37,3.9-13.34,6.57-20.67,7.93l-.32-.33-6.13-6.65c7.02-.65,13.74-2.64,19.91-5.85-6.01-4.03-14.02-8.18-23.47-10.11l-2.54-3.82-3.32-4.91c13.31,1.11,24.49,6.39,32.6,11.64v-41.63c-5.78,6.01-10.43,13.24-11.17,21.37-2.61-1.78-4.88-4-6.7-6.59,1.95-7.11,6.06-13.45,10.97-18.86-7.01,2.11-12.47,5.8-15.49,8.16-.28-1.56-.42-3.15-.42-4.78s.14-3.24.42-4.79c3.92-2.47,9.1-5.08,15.22-6.65-4-2.58-7.49-4.47-9.57-5.52,1.77-2.18,3.88-4.07,6.27-5.56,2.79,1.51,6.48,3.69,10.46,6.45v-10.39c1.27-.18,2.59-.27,3.92-.27s2.63.09,3.91.27v10.37c3.97-2.74,7.68-4.92,10.47-6.43,2.37,1.49,4.49,3.38,6.27,5.56-2.08,1.04-5.56,2.94-9.57,5.52,6.13,1.57,11.31,4.18,15.22,6.65.27,1.55.42,3.16.42,4.79s-.15,3.23-.42,4.78c-3.01-2.36-8.49-6.03-15.49-8.15,4.91,5.41,9.02,11.74,10.97,18.85-1.83,2.59-4.1,4.81-6.71,6.59-.75-8.13-5.38-15.37-11.17-21.37v41.63c8.11-5.28,19.31-10.53,32.59-11.64l-3.3,4.91ZM1427.67,414.09v58.05l22.05,7.64,42.64,14.79-64.69-80.48ZM1388.51,365.37c-3.75-4.68-9.37-7.38-15.37-7.38h-220.8c-4.08,0-7.64,2.18-9.51,5.81-1.87,3.62-1.59,7.76.77,11.1l55.11,77.77,4,5.64,97.92-24.29,119.29-29.58-31.42-39.07ZM1268.64,561.06l-64.32-90.75v151.6c0,5.54,3.77,10.4,9.13,11.81l94.23,24.64v-42.21l-39.05-55.09ZM1356.27,684.7l-6.82-9.62-36.15-9.45v45.65c0,3.48,1.61,6.65,4.44,8.68,2.83,2.05,6.34,2.58,9.65,1.48l44.42-14.82-15.54-21.93ZM1357.91,677.29l6.37,8.97,13.1,18.51,37.64-12.54-57.11-14.94ZM1615.75,543.31l-106.79-37.04,8.05,10.01,89.95,111.93,8.65-2.88c5-1.67,8.35-6.31,8.35-11.59v-58.88c0-5.19-3.3-9.83-8.22-11.54"/>
</svg>