<svg width="493" height="410" viewBox="0 0 493 410" fill="none" xmlns="http://www.w3.org/2000/svg">
<g opacity="0.1">
<path d="M365.55 110.617L488.656 111.016C491.493 126.185 493 141.841 493 157.853C493 297.121 380.977 410 242.754 410C125.588 410 27.2189 328.834 0 219.282H34.4005V86.7103H48.4089V202.649H68.7567V154.925H100.675V187.081V137.362C100.675 137.362 122.884 122.769 139.375 122.769C156.265 122.769 179.007 137.362 179.007 137.362V184.642H140.794H192.527V55.5744H203.654V183.666V0H213.806V184.642H193.99H236.636H223.47V64.312H233.622V184.642V95.4922H242.798V177.146V117.891H279.504V172.445V98.4195H296.926L297.059 174.175H243.995H312.885L312.752 71.1424H322.549V174.396H310.979L365.55 174.618L365.106 108.177L365.372 174.84L396.049 174.396V218.705L396.094 174.796L334.651 174.352V87.6861H345.202V173.908V34.1075H354.024V174.396V85.7345H398V110.572L365.55 110.617Z" fill="black"/>
<path d="M395.518 202.161C395.518 202.161 417.727 180.206 446.32 180.206C472.874 180.206 490.296 197.238 490.296 197.238" fill="black"/>
</g>
</svg>
