<?xml version="1.0" encoding="UTF-8"?><svg id="RCJY_Logo" xmlns="http://www.w3.org/2000/svg" xmlns:xlink="http://www.w3.org/1999/xlink" viewBox="0 0 500 500"><defs><style>.cls-1{fill:url(#linear-gradient);}.cls-2{fill:#052976;}.cls-3{fill:#8142ff;}.cls-4{fill:#20cc76;}.cls-5{fill:#103576;}.cls-6{fill:#0a9d76;}.cls-7{fill:#2633ff;}.cls-8{fill:#4cc4ff;}</style><linearGradient id="linear-gradient" x1="241.52" y1="202.16" x2="241.52" y2="129.31" gradientTransform="matrix(1, 0, 0, 1, 0, 0)" gradientUnits="userSpaceOnUse"><stop offset=".13" stop-color="#bc9470"/><stop offset=".15" stop-color="#be9773"/><stop offset=".34" stop-color="#d5b9a1"/><stop offset=".53" stop-color="#e7d5c4"/><stop offset=".71" stop-color="#f4e8de"/><stop offset=".87" stop-color="#fcf4ed"/><stop offset="1" stop-color="#fff9f3"/></linearGradient></defs><g><g><path class="cls-8" d="M386.86,164.02v33.03c0,3.63-2.32,6.84-5.76,7.99l-5.89,1.96-59.1-73.52,65.08,22.57c3.39,1.18,5.66,4.37,5.66,7.96Z"/><polygon class="cls-7" points="316.12 133.49 375.22 207.01 273.6 240.9 273.6 118.75 316.12 133.49"/><polygon class="cls-3" points="273.6 80.59 316.12 133.49 273.6 118.75 273.6 80.59"/><polygon class="cls-2" points="273.6 118.75 273.6 240.9 232.25 230.09 209.44 197.9 209.44 96.5 209.44 96.5 209.45 96.5 273.6 118.75"/><polygon class="cls-5" points="273.6 80.59 273.6 118.75 209.45 96.5 273.6 80.59 273.6 80.59"/><path class="cls-3" d="M273.6,80.59l-64.15,15.91h0l-61.12,15.16-33.78-47.66c-3.56-5.02,.03-11.97,6.19-11.97h123.85c3.83,0,7.45,1.74,9.85,4.72l19.17,23.84Z"/><polygon class="cls-7" points="273.6 240.9 246.36 249.99 232.25 230.09 273.6 240.9"/><path class="cls-8" d="M232.25,230.09l14.1,19.9-26.93,8.98c-4.91,1.64-9.98-2.02-9.98-7.19v-27.65l22.81,5.96Z"/><polygon class="cls-6" points="209.44 197.9 232.25 230.09 209.44 224.12 209.44 197.9"/><path class="cls-4" d="M209.44,197.9v26.22l-54.83-14.34c-3.71-.97-6.29-4.32-6.29-8.15V111.65l61.12,86.25Z"/><polygon class="cls-5" points="209.44 96.5 209.44 197.9 148.32 111.65 209.44 96.5"/></g><path class="cls-1" d="M256.09,176.21c.21,.03,.42,.05,.63,.07l-3.43,3.72-.18,.2c-.34-.06-.68-.13-1.02-.21-.16-.03-.32-.07-.48-.11-.21-.05-.41-.1-.62-.15-.12-.03-.25-.06-.37-.1-.09-.02-.19-.05-.28-.07-.18-.05-.36-.1-.53-.15-.27-.08-.53-.16-.79-.24-.17-.05-.34-.1-.5-.16-.66-.22-1.32-.46-1.96-.73-.15-.06-.3-.12-.46-.19-.07-.03-.13-.05-.2-.08-.16-.07-.32-.14-.47-.21-.17-.07-.34-.15-.51-.23-.13-.06-.26-.12-.39-.19-.13-.06-.27-.13-.4-.19-.2-.1-.4-.21-.6-.31-.2-.11-.4-.22-.6-.32,.66-.42,1.3-.86,1.92-1.32,.48-.35,.98-.7,1.5-1.05,.23-.16,.47-.31,.7-.46,.19,.09,.38,.17,.57,.25,.35,.15,.71,.3,1.06,.43,.25,.09,.5,.19,.75,.28,.15,.05,.3,.11,.45,.16,.16,.05,.32,.11,.48,.16,.19,.06,.39,.12,.58,.18,.21,.06,.42,.12,.63,.18,.69,.19,1.4,.35,2.1,.49,.12,.03,.25,.05,.38,.07,.19,.04,.37,.07,.56,.1,.21,.03,.41,.07,.62,.09,.15,.02,.3,.04,.45,.06,.13,.02,.26,.03,.38,.05Zm-12.38-7.26v-23.35c3.24,3.37,5.84,7.44,6.27,11.99,1.46-1,2.74-2.25,3.76-3.7-1.09-3.99-3.4-7.54-6.15-10.57,3.92,1.19,6.98,3.24,8.68,4.57,.16-.87,.24-1.77,.24-2.68s-.08-1.81-.24-2.68c-2.2-1.39-5.1-2.85-8.54-3.73,2.25-1.46,4.2-2.51,5.37-3.11-1-1.22-2.19-2.27-3.51-3.12-1.57,.85-3.64,2.07-5.87,3.62v-5.28h0v-.54c-.72-.1-1.45-.16-2.19-.16s-1.48,.05-2.19,.16v5.82c-2.23-1.55-4.31-2.77-5.87-3.62-1.33,.85-2.52,1.9-3.51,3.12,1.17,.59,3.12,1.65,5.37,3.11-3.43,.87-6.34,2.34-8.54,3.73-.16,.87-.24,1.77-.24,2.68s.08,1.8,.24,2.67c1.69-1.33,4.76-3.39,8.69-4.57-2.76,3.04-5.07,6.59-6.16,10.58,1.03,1.44,2.3,2.69,3.76,3.7,.42-4.56,3.02-8.62,6.27-11.99v23.33h0v.02c-4.55-2.95-10.83-5.91-18.29-6.53l1.85,2.76,1.44,2.14c5.29,1.08,9.79,3.41,13.16,5.67-3.46,1.8-7.23,2.92-11.17,3.29l3.43,3.72,.18,.2c4.11-.77,8.02-2.27,11.59-4.46,.85-.52,1.67-1.07,2.48-1.66,.49-.36,1.01-.72,1.55-1.09,3.37-2.26,7.86-4.58,13.16-5.67l1.44-2.14,1.85-2.76c-7.46,.62-13.73,3.58-18.29,6.53Z"/></g><g><g><polygon class="cls-2" points="382.04 349.93 378.36 346.25 374.46 350.15 378.36 354.06 382.04 350.37 385.73 354.06 389.63 350.15 385.73 346.25 382.04 349.93"/><polygon class="cls-2" points="290.81 311.19 294.49 314.88 298.4 310.97 294.49 307.07 290.81 310.76 287.13 307.07 283.23 310.97 287.13 314.88 290.81 311.19"/><path class="cls-2" d="M368.6,314.11h-3.21c-1.65,0-2.07-.8-2.07-1.84,0-1.18,.61-1.73,2.22-1.73,.61,0,1.41,.09,2.22,.24l.05-2.32c-1.08-.14-2.17-.28-3.11-.28-2.97,0-4.71,1.18-4.71,3.58,0,.9,.24,1.74,.8,2.36h-1.6v2.26h9.43v-2.26Z"/><path class="cls-2" d="M290.59,341.66c2.83,0,5.56-.84,8.25-2.26,1.18,1.27,2.88,1.98,4.95,1.98h55.76c3.33,0,5.71-1.87,6.66-3.81,.61,1.92,2.51,3.81,4.93,3.81h9.75c3.33,0,5.71-1.87,6.66-3.81,.61,1.92,2.51,3.81,4.93,3.81h30.74c3.94,0,6.75-1.41,8.54-3.84v.03c.6,1.92,2.51,3.81,4.93,3.81h4.66c4.43,0,8.02-3.59,8.02-8.02v-26.41h-6.79v26.97c0,1-.81,1.81-1.81,1.81h-3.69c-2.17,0-3.18-1.35-3.18-3.56h-.01c.17-1.05,.27-2.17,.27-3.35,0-8.11-5.61-12.72-12.16-12.77-4.71,0-8.41,2.51-11.57,5.67h-.85c-5.28,0-9.85,2.74-9.85,8.44,0,2.17,.72,4.22,2.47,5.58h-10.04c-2.17,0-3.18-1.35-3.18-3.56v-12.83h-6.79v14.57c0,1-.81,1.81-1.81,1.81h-9.55c-2.17,0-3.18-1.35-3.18-3.56v-12.83h-6.79v14.57c0,1-.81,1.81-1.81,1.81h-52.46c-1.6,0-2.59-1.13-2.59-2.78v-17.05h-6.79v2.5c-1.32-.14-2.55-.29-3.77-.29-6.99,0-12.54,3.71-12.54,10.28v3.56c0,5.8,3.63,9.71,9.71,9.71Zm130.59-19.97c3.25,0,6.18,2.5,6.18,7.4,0,3.82-1.75,6.65-5.38,6.65h-2.35c.15-1.13,.19-2.21,.19-3.29,0-3.92-1.27-6.93-3.72-8.77,1.51-1.08,3.11-1.98,5.09-1.98Zm-11.45,5.14c3.15,0,4.14,2.68,4.14,5.7,0,1.13-.14,2.12-.37,3.2h-3.25c-2.83,0-4.57-1.83-4.57-4.57,0-2.5,1.46-4.34,4.06-4.34Zm-122.06,1.93c0-3.44,2.62-5,6.06-5,1.14,0,2.23,.15,3.46,.33v10.69c-1.56,.71-3.08,1.23-4.64,1.23-2.93,0-4.89-1.88-4.89-4.34v-2.92Z"/><rect class="cls-2" x="455.82" y="306.95" width="6.79" height="34.43"/><polygon class="cls-2" points="207.86 402.58 204.18 398.9 200.28 402.8 204.18 406.7 207.86 403.02 211.54 406.7 215.45 402.8 211.54 398.9 207.86 402.58"/><path class="cls-2" d="M236.67,371.73c-6.83,0-11.03,4.67-11.03,11.46s3.96,10.74,10.51,10.74h4.95c-.29,4.48-3.82,5.86-8.35,5.86-1.32,0-2.5-.09-3.82-.23v5.56c1.6,.15,3.01,.29,4.48,.24,8.53-.09,14.52-4.34,14.52-12.77v-8.82c0-7.12-4.15-12.04-11.27-12.04Zm4.48,16.66h-4.62c-2.97,0-4.15-2.45-4.15-5.37,0-3.11,1.27-5.66,4.34-5.66s4.43,2.68,4.43,5.84v5.19Z"/><rect class="cls-2" x="189.58" y="361" width="5.65" height="5.65" transform="translate(-200.91 242.61) rotate(-45)"/><rect class="cls-2" x="165.15" y="399.98" width="5.65" height="5.65" transform="translate(-235.63 236.75) rotate(-45)"/><path class="cls-2" d="M205.15,394.03h1.61c4.43,0,8.02-3.59,8.02-8.02v-14.02h-6.79v14.57c0,1-.81,1.81-1.81,1.81h-7.2c-2.17,0-3.18-1.35-3.18-3.56v-12.83h-6.79v14.57c0,1-.81,1.81-1.81,1.81h-9.57c-2.17,0-3.18-1.35-3.18-3.56v-12.83h-6.79v14.57c0,1-.81,1.81-1.81,1.81H59.92c1.98-1.7,3.01-4.15,3.01-7.12,0-6.36-4.9-9.65-11.35-9.65-3.82,0-7.22,1.08-10.56,2.92l-1.98,5.36,6.13,10.04c-4.76,.9-7.78,4.34-7.78,9.38,0,7.07,5.99,9.66,13.11,9.66,2.64,0,4.99-.23,7.63-.61v-5.43c-2.31,.29-4.52,.47-6.88,.47-3.77,0-7.07-.76-7.07-4.53,0-3.25,2.5-4.85,5.75-4.85h116.44c3.33,0,5.71-1.87,6.66-3.81,.61,1.92,2.51,3.81,4.93,3.81h9.77c3.33,0,5.71-1.87,6.66-3.81,.61,1.92,2.51,3.81,4.93,3.81h5.84Zm-153.48-5.65h-.8l-5.66-9.29c1.65-1.08,3.39-1.83,5.47-1.83,3.15,0,5.6,1.79,5.6,5.13,0,3.02-1.93,4.91-4.62,5.99Z"/><rect class="cls-2" x="411.22" y="399.98" width="5.65" height="5.65" transform="translate(-163.55 410.75) rotate(-45)"/><rect class="cls-2" x="382.91" y="399.98" width="5.65" height="5.65" transform="translate(-171.84 390.74) rotate(-45)"/><path class="cls-2" d="M455.82,386.57c0,1-.81,1.81-1.81,1.81h-4.71c-2.17,0-3.18-1.35-3.18-3.56v-25.22h-6.79v26.97c0,1-.81,1.81-1.81,1.81h-6.72c-2.17,0-3.18-1.35-3.18-3.56v-5c0-7.45-5.42-11.36-12.82-11.36-3.39,0-9.46,.58-12.76,1.1v5.44c2.97-.47,8.66-.94,11.68-.9,4.1,0,7.12,1.84,7.12,5.89v6.57c0,1-.81,1.81-1.81,1.81h-23.62c-2.17,0-3.18-1.35-3.18-3.56v-12.83h-6.79v14.57c0,1-.81,1.81-1.81,1.81h-9.55c-2.17,0-3.18-1.35-3.18-3.56v-12.83h-6.79v14.57c0,1-.81,1.81-1.81,1.81h-70.71c-2.17,0-3.18-1.35-3.18-3.56v-25.22h-6.79v32.9c0,4-2.74,6.36-6.7,6.36-4.38,0-6.74-3.25-6.74-8.2,0-1.65,.44-4.48,.72-6.69h-6.79c-.33,2.4-.76,5.47-.76,7.87,0,8.01,5.75,12.44,13.72,12.44,7.16,0,12.84-3.73,13.25-10.51,.04-.72,.03-2.25,.02-3.47,.63,1.9,2.52,3.74,4.91,3.74h69.59c3.33,0,5.71-1.87,6.66-3.81,.61,1.92,2.51,3.81,4.93,3.81h9.75c3.33,0,5.71-1.87,6.66-3.81,.61,1.92,2.51,3.81,4.93,3.81h23.82c3.33,0,5.71-1.87,6.66-3.81,.61,1.92,2.51,3.81,4.93,3.81h6.92c3.33,0,5.71-1.87,6.66-3.81,.61,1.92,2.51,3.81,4.93,3.81h4.96c4.43,0,8.02-3.59,8.02-8.02v-26.41h-6.79v26.97Z"/><polygon class="cls-2" points="363.95 402.58 360.27 398.9 356.36 402.8 360.27 406.7 363.95 403.02 367.63 406.7 371.53 402.8 367.63 398.9 363.95 402.58"/><polygon class="cls-2" points="47.89 311.19 51.57 314.88 55.47 310.97 51.57 307.07 47.89 310.76 44.21 307.07 40.3 310.97 44.21 314.88 47.89 311.19"/><rect class="cls-2" x="258.87" y="306.95" width="6.79" height="34.43"/><path class="cls-2" d="M245.62,333.92c0,1-.81,1.82-1.82,1.82h-6.36c-2.18,0-3.18-1.35-3.18-3.56h0c.11-.59,.17-1.17,.17-1.73,0-6.56-4.66-10.98-11.38-10.98s-11.38,4.42-11.38,10.98c0,2.71,.73,4.58,1.05,5.29h-5.99c-2.17,0-3.18-1.35-3.18-3.56v-25.22h-6.79v26.97c0,1-.81,1.82-1.81,1.82h-6.33c-2.17,0-3.18-1.35-3.18-3.56v-.85c0-6.05-4.91-10.95-10.95-10.95h-27.1l13.85-9.12-3.15-4.5-20.35,14.31,1.91,4.96h34.43c2.53,0,4.58,2.05,4.58,4.58v3.32c0,1.01-.81,1.82-1.82,1.82h-45.85c-2.17,0-3.18-1.35-3.18-3.56v-12.83h-6.79v14.57c0,1-.81,1.82-1.82,1.82H63.65c-1.6,0-2.59-1.13-2.59-2.78v-17.05h-6.79v2.5c-1.32-.14-2.55-.29-3.77-.29-6.99,0-12.54,3.71-12.54,10.28v3.56c0,5.8,3.63,9.71,9.71,9.71,2.83,0,5.56-.84,8.25-2.26,1.18,1.27,2.88,1.98,4.95,1.98h58.85c3.33,0,5.71-1.87,6.66-3.81,.61,1.92,2.51,3.81,4.93,3.81h46.05c3.33,0,5.71-1.87,6.66-3.81,.61,1.92,2.51,3.81,4.93,3.81h6.52c3.33,0,5.71-1.87,6.66-3.81,.61,1.92,2.51,3.81,4.93,3.81h17.29c3.09,0,5.65-1.61,7.41-3.81,.61,1.92,2.51,3.81,4.93,3.81h7.71c4.43,0,8.02-3.59,8.02-8.02v-26.41h-6.79v26.97Zm-191.35,.87c-1.56,.71-3.08,1.23-4.64,1.23-2.93,0-4.89-1.88-4.89-4.34v-2.92c0-3.44,2.62-5,6.06-5,1.14,0,2.24,.15,3.46,.33v10.69Zm173.37-3.61c0,2.51-2.04,4.56-4.56,4.56h-3.95s-.69-2.1-.69-4.63c0-3.53,1.3-5.95,4.56-5.99h.06c3.26,.03,4.57,2.46,4.57,5.99v.08Z"/><polygon class="cls-2" points="120.87 350.37 124.55 354.06 128.46 350.15 124.55 346.25 120.87 349.93 117.19 346.25 113.29 350.15 117.19 354.06 120.87 350.37"/></g><g><path class="cls-2" d="M49.09,442.67l-3.5-5.31c-.56-.84-1.31-1.35-2.3-1.35h-1.74v6.66h-3.59v-17.72h7.34c3.66,0,6.59,1.72,6.59,5.31,0,2.69-1.63,4.45-4.13,5.15,.99,.7,1.76,1.54,2.44,2.55l3.07,4.72h-4.18Zm-4.13-9.32c1.85,0,3.39-.9,3.32-2.78-.07-1.81-1.54-2.66-3.32-2.66h-3.41v5.44h3.41Z"/><path class="cls-2" d="M67.26,436.28c0,4.04-2.78,6.64-6.82,6.61-4.04,0-6.77-2.6-6.77-6.61s2.78-6.55,6.8-6.57c4.02,0,6.8,2.55,6.8,6.57Zm-3.61,0c0-2.05-1.13-3.61-3.21-3.61s-3.18,1.58-3.18,3.66,1.11,3.61,3.18,3.61,3.21-1.58,3.21-3.66Z"/><path class="cls-2" d="M71.95,430.09l3.43,8.53,2.96-8.53h3.41l-6.73,17.88h-3.18l1.96-5.35-5.82-12.53h3.97Z"/><path class="cls-2" d="M95.57,430.05v12.62h-3.39v-1.94c-.9,1.33-2.3,2.17-4.27,2.17-3.66,0-5.42-2.93-5.42-6.61s1.74-6.61,5.42-6.61c1.96,0,3.36,.84,4.27,2.19v-1.81h3.39Zm-3.59,6.25v-.07c-.02-1.99-.95-3.61-2.93-3.61s-2.93,1.63-2.93,3.63,.93,3.68,2.96,3.68,2.91-1.63,2.91-3.63Z"/><path class="cls-2" d="M101.84,424.65v18.02h-3.43v-18.02h3.43Z"/><path class="cls-2" d="M123.22,425.69v2.66l-.27,.23c-1.44-.59-2.84-.99-4.33-.99-3.73,0-5.89,2.51-5.89,6.16s2.3,6.25,6.07,6.25c1.51,0,2.93-.41,4.29-1.15l.29,.23v2.8c-1.6,.65-3.18,1.02-4.92,1.02-5.67,0-9.5-3.57-9.5-9.26,0-5.35,3.36-8.99,8.74-8.99,1.94,0,3.75,.32,5.53,1.04Z"/><path class="cls-2" d="M138.41,436.28c0,4.04-2.78,6.64-6.82,6.61-4.04,0-6.77-2.6-6.77-6.61s2.78-6.55,6.8-6.57c4.02,0,6.8,2.55,6.8,6.57Zm-3.61,0c0-2.05-1.13-3.61-3.21-3.61s-3.18,1.58-3.18,3.66,1.11,3.61,3.18,3.61,3.21-1.58,3.21-3.66Z"/><path class="cls-2" d="M160.85,435.22v7.45h-3.41v-6.57c0-1.85-.5-3.43-2.42-3.43-2.14,0-2.55,2.05-2.62,4.33v5.67h-3.41v-6.57c0-1.85-.5-3.43-2.42-3.43-2.14,0-2.55,2.05-2.62,4.33v5.67h-3.41v-12.62h3.23v2.03c.81-1.44,2.17-2.37,4.11-2.37,2.14,0,3.48,1.13,4.09,2.82,.79-1.69,2.21-2.82,4.36-2.82,3.16,0,4.52,2.44,4.52,5.51Z"/><path class="cls-2" d="M183.74,435.22v7.45h-3.41v-6.57c0-1.85-.5-3.43-2.42-3.43-2.14,0-2.55,2.05-2.62,4.33v5.67h-3.41v-6.57c0-1.85-.5-3.43-2.42-3.43-2.14,0-2.55,2.05-2.62,4.33v5.67h-3.41v-12.62h3.23v2.03c.81-1.44,2.17-2.37,4.11-2.37,2.14,0,3.48,1.13,4.09,2.82,.79-1.69,2.21-2.82,4.36-2.82,3.16,0,4.52,2.44,4.52,5.51Z"/><path class="cls-2" d="M202.35,430.29v2.82l-.18,.14c-1.49-.32-2.91-.56-4.22-.56s-2.35,.23-2.35,.93c0,.86,1.56,1.02,2.98,1.33,2.53,.54,4.7,1.47,4.7,3.97,0,2.82-2.8,3.97-6.14,3.97-1.69,0-3.3-.18-4.88-.75v-2.8l.18-.14c1.47,.45,2.91,.72,4.49,.72,1.26,0,2.62-.27,2.62-1.11,0-.9-1.63-1.15-3-1.44-2.53-.59-4.61-1.42-4.61-3.84,0-2.73,2.71-3.82,5.94-3.82,1.56,0,2.98,.25,4.47,.56Z"/><path class="cls-2" d="M215.17,430.29v2.82l-.18,.14c-1.49-.32-2.91-.56-4.22-.56s-2.35,.23-2.35,.93c0,.86,1.56,1.02,2.98,1.33,2.53,.54,4.7,1.47,4.7,3.97,0,2.82-2.8,3.97-6.14,3.97-1.69,0-3.3-.18-4.88-.75v-2.8l.18-.14c1.47,.45,2.91,.72,4.49,.72,1.26,0,2.62-.27,2.62-1.11,0-.9-1.63-1.15-3-1.44-2.53-.59-4.61-1.42-4.61-3.84,0-2.73,2.71-3.82,5.94-3.82,1.56,0,2.98,.25,4.47,.56Z"/><path class="cls-2" d="M237.36,436.28c0,4.04-2.78,6.64-6.82,6.61-4.04,0-6.77-2.6-6.77-6.61s2.78-6.55,6.8-6.57c4.02,0,6.8,2.55,6.8,6.57Zm-3.61,0c0-2.05-1.13-3.61-3.21-3.61s-3.18,1.58-3.18,3.66,1.11,3.61,3.18,3.61,3.21-1.58,3.21-3.66Z"/><path class="cls-2" d="M242.71,430.05v2.05c.81-1.44,2.17-2.39,4.13-2.39,3.16,0,4.52,2.44,4.52,5.51v7.45h-3.41v-6.57c0-1.85-.5-3.43-2.35-3.43-2.35,0-2.69,2.53-2.69,5.1l-.02-.02v4.92h-3.41v-12.62h3.23Z"/><path class="cls-2" d="M257.59,430.18h1.83v-1.92c0-2.71,2.08-4.2,4.79-4.2,1.17,0,2.26,.2,3.3,.75l-.02,2.57-.11,.16c-.79-.29-1.56-.52-2.42-.52-1.26,0-2.1,.77-2.1,2.05v1.11h3.91v2.96h-3.91v9.53h-3.43v-9.53h-1.83v-2.96Z"/><path class="cls-2" d="M281.15,436.28c0,4.04-2.78,6.64-6.82,6.61-4.04,0-6.77-2.6-6.77-6.61s2.78-6.55,6.8-6.57c4.02,0,6.8,2.55,6.8,6.57Zm-3.61,0c0-2.05-1.13-3.61-3.21-3.61s-3.18,1.58-3.18,3.66,1.11,3.61,3.18,3.61,3.21-1.58,3.21-3.66Z"/><path class="cls-2" d="M286.46,430.05v2.12c1.11-1.81,2.8-2.6,4.94-2.46v2.98c-.36-.07-.7-.09-1.04-.09-2.1,0-3.68,1.08-3.68,3.34v6.73h-3.41v-12.62h3.18Z"/><path class="cls-2" d="M305.96,424.94v12.53c0,3.36-2.3,5.42-5.73,5.42-1.17,0-2.3-.23-3.5-.54v-2.57l.29-.23c.77,.23,1.51,.41,2.26,.41,1.85-.02,2.96-1.24,2.96-3.03v-11.99h3.73Z"/><path class="cls-2" d="M317.39,442.67v-1.94c-.77,1.35-2.17,2.17-4.15,2.17-3.25,0-5.01-2.14-5.01-5.44v-7.4h3.43v6.59c0,1.83,.74,3.3,2.62,3.3,2.12,0,2.91-1.87,2.91-4.04l.02,.02v-5.87h3.41v12.62h-3.23Z"/><path class="cls-2" d="M336.37,436.3c0,3.66-1.76,6.61-5.44,6.61-1.96,0-3.36-.84-4.24-2.19v1.92l-.99,.02h-2.23v-18.02h3.43v6.95c.9-1.2,2.23-1.92,4.06-1.92,3.66,0,5.42,2.96,5.42,6.61Zm-3.61,0c0-2.01-.93-3.66-2.93-3.66s-2.93,1.65-2.93,3.66,.9,3.66,2.91,3.66,2.96-1.65,2.96-3.66Z"/><path class="cls-2" d="M350.89,430.05v12.62h-3.39v-1.94c-.9,1.33-2.3,2.17-4.27,2.17-3.66,0-5.42-2.93-5.42-6.61s1.74-6.61,5.42-6.61c1.96,0,3.36,.84,4.27,2.19v-1.81h3.39Zm-3.59,6.25v-.07c-.02-1.99-.95-3.61-2.93-3.61s-2.93,1.63-2.93,3.63,.93,3.68,2.96,3.68,2.91-1.63,2.91-3.63Z"/><path class="cls-2" d="M357.16,430.05v12.62h-3.43v-12.62h3.43Zm.44-3.97l-2.15,2.15-2.15-2.15,2.15-2.15,2.15,2.15Z"/><path class="cls-2" d="M363.42,424.65v18.02h-3.43v-18.02h3.43Z"/><path class="cls-2" d="M386.6,442.67h-4.2l-1.33-1.24c-1.56,1.02-3.32,1.6-5.03,1.6-3.27,0-5.44-1.9-5.44-4.42,0-2.1,1.33-3.27,2.91-4.13-1.04-1.06-1.74-2.33-1.74-3.77,0-2.33,2.05-4.27,4.99-4.27s4.88,1.72,4.88,4.11-1.67,3.43-3.43,4.31l2.98,2.78c.68-.97,1.08-2.19,1.08-3.59h3.14c0,2.08-.86,3.97-2.17,5.49l3.36,3.14Zm-7.61-3.16l-3.59-3.3c-.88,.52-1.49,1.13-1.49,2.03,0,1.04,.97,1.92,2.42,1.92,.9,0,1.83-.23,2.66-.65Zm-2.62-6.37c1.33-.61,2.35-1.26,2.35-2.35,0-.97-.86-1.69-1.9-1.69-1.31,0-1.94,.86-1.94,1.72,0,.75,.56,1.4,1.49,2.33Z"/><path class="cls-2" d="M407.41,424.94l-5.67,10.2v7.52h-3.73v-7.52l-6.21-10.2h4.33l3.95,7.07,3.72-7.07h3.59Z"/><path class="cls-2" d="M418.18,430.05v12.62h-3.39v-1.94c-.9,1.33-2.3,2.17-4.27,2.17-3.66,0-5.42-2.93-5.42-6.61s1.74-6.61,5.42-6.61c1.96,0,3.36,.84,4.27,2.19v-1.81h3.39Zm-3.59,6.25v-.07c-.02-1.99-.95-3.61-2.93-3.61s-2.93,1.63-2.93,3.63,.93,3.68,2.96,3.68,2.91-1.63,2.91-3.63Z"/><path class="cls-2" d="M424.26,430.05v2.05c.81-1.44,2.17-2.39,4.13-2.39,3.16,0,4.52,2.44,4.52,5.51v7.45h-3.41v-6.57c0-1.85-.5-3.43-2.35-3.43-2.35,0-2.69,2.53-2.69,5.1l-.02-.02v4.92h-3.41v-12.62h3.23Z"/><path class="cls-2" d="M448.37,436.3c0,3.66-1.76,6.61-5.44,6.61-1.96,0-3.36-.84-4.24-2.19v1.92l-.99,.02h-2.24v-18.02h3.43v6.95c.9-1.2,2.24-1.92,4.06-1.92,3.66,0,5.42,2.96,5.42,6.61Zm-3.61,0c0-2.01-.93-3.66-2.93-3.66s-2.93,1.65-2.93,3.66,.9,3.66,2.91,3.66,2.96-1.65,2.96-3.66Z"/><path class="cls-2" d="M459.38,442.67v-1.94c-.77,1.35-2.17,2.17-4.15,2.17-3.25,0-5.01-2.14-5.01-5.44v-7.4h3.43v6.59c0,1.83,.74,3.3,2.62,3.3,2.12,0,2.91-1.87,2.91-4.04l.02,.02v-5.87h3.41v12.62h-3.23Z"/><g><rect class="cls-2" x="218.19" y="430.05" width="3.43" height="12.62"/><rect class="cls-2" x="218.39" y="424.55" width="3.05" height="3.05" transform="translate(-236.87 280.29) rotate(-45)"/></g><g><rect class="cls-2" x="186.3" y="430.05" width="3.43" height="12.62"/><rect class="cls-2" x="186.49" y="424.55" width="3.05" height="3.05" transform="translate(-246.21 257.74) rotate(-45)"/></g></g></g></svg>